<mxfile host="app.diagrams.net" agent="Mozilla/5.0 (Windows NT 10.0; Win64; x64) AppleWebKit/537.36 (KHTML, like Gecko) Chrome/138.0.0.0 Safari/537.36" version="28.0.6">
  <diagram name="PÃ¡gina-1" id="PuR6PXavX1iiZgIphFz7">
    <mxGraphModel grid="1" page="1" gridSize="10" guides="1" tooltips="1" connect="1" arrows="1" fold="1" pageScale="1" pageWidth="827" pageHeight="1169" math="0" shadow="0">
      <root>
        <mxCell id="0" />
        <mxCell id="1" parent="0" />
        <mxCell id="IP761gw_RLKj5CbCcdFg-66" style="edgeStyle=orthogonalEdgeStyle;rounded=0;orthogonalLoop=1;jettySize=auto;html=1;entryX=0;entryY=0.5;entryDx=0;entryDy=0;" edge="1" parent="1" source="IP761gw_RLKj5CbCcdFg-1" target="IP761gw_RLKj5CbCcdFg-31">
          <mxGeometry relative="1" as="geometry">
            <Array as="points" />
          </mxGeometry>
        </mxCell>
        <mxCell id="IP761gw_RLKj5CbCcdFg-1" value="" style="shape=partialRectangle;whiteSpace=wrap;html=1;top=0;bottom=0;fillColor=none;rotation=90;" vertex="1" parent="1">
          <mxGeometry x="426.87" y="260" width="65" height="120" as="geometry" />
        </mxCell>
        <mxCell id="IP761gw_RLKj5CbCcdFg-2" value="" style="endArrow=none;html=1;rounded=0;exitX=1;exitY=0;exitDx=0;exitDy=0;" edge="1" parent="1" source="IP761gw_RLKj5CbCcdFg-1">
          <mxGeometry width="50" height="50" relative="1" as="geometry">
            <mxPoint x="563.12" y="326.25" as="sourcePoint" />
            <mxPoint x="553.12" y="316.25" as="targetPoint" />
          </mxGeometry>
        </mxCell>
        <mxCell id="IP761gw_RLKj5CbCcdFg-3" value="" style="endArrow=none;html=1;rounded=0;exitX=0;exitY=0;exitDx=0;exitDy=0;" edge="1" parent="1" source="IP761gw_RLKj5CbCcdFg-1">
          <mxGeometry width="50" height="50" relative="1" as="geometry">
            <mxPoint x="563.12" y="278.25" as="sourcePoint" />
            <mxPoint x="553.12" y="316.25" as="targetPoint" />
          </mxGeometry>
        </mxCell>
        <mxCell id="IP761gw_RLKj5CbCcdFg-4" value="" style="endArrow=none;html=1;rounded=0;entryX=1;entryY=1;entryDx=0;entryDy=0;" edge="1" parent="1" target="IP761gw_RLKj5CbCcdFg-1">
          <mxGeometry width="50" height="50" relative="1" as="geometry">
            <mxPoint x="366.87" y="320" as="sourcePoint" />
            <mxPoint x="390.12" y="348.25" as="targetPoint" />
          </mxGeometry>
        </mxCell>
        <mxCell id="IP761gw_RLKj5CbCcdFg-5" value="" style="endArrow=none;html=1;rounded=0;entryX=0;entryY=1;entryDx=0;entryDy=0;" edge="1" parent="1" target="IP761gw_RLKj5CbCcdFg-1">
          <mxGeometry width="50" height="50" relative="1" as="geometry">
            <mxPoint x="366.87" y="320" as="sourcePoint" />
            <mxPoint x="390.12" y="290" as="targetPoint" />
          </mxGeometry>
        </mxCell>
        <mxCell id="IP761gw_RLKj5CbCcdFg-7" value="" style="shape=partialRectangle;whiteSpace=wrap;html=1;top=0;bottom=0;fillColor=none;rotation=90;" vertex="1" parent="1">
          <mxGeometry x="636.87" y="260" width="65" height="120" as="geometry" />
        </mxCell>
        <mxCell id="IP761gw_RLKj5CbCcdFg-8" value="" style="endArrow=none;html=1;rounded=0;exitX=1;exitY=0;exitDx=0;exitDy=0;" edge="1" parent="1" source="IP761gw_RLKj5CbCcdFg-7">
          <mxGeometry width="50" height="50" relative="1" as="geometry">
            <mxPoint x="773.12" y="326.25" as="sourcePoint" />
            <mxPoint x="763.12" y="316.25" as="targetPoint" />
          </mxGeometry>
        </mxCell>
        <mxCell id="IP761gw_RLKj5CbCcdFg-9" value="" style="endArrow=none;html=1;rounded=0;exitX=0;exitY=0;exitDx=0;exitDy=0;" edge="1" parent="1" source="IP761gw_RLKj5CbCcdFg-7">
          <mxGeometry width="50" height="50" relative="1" as="geometry">
            <mxPoint x="773.12" y="278.25" as="sourcePoint" />
            <mxPoint x="763.12" y="316.25" as="targetPoint" />
          </mxGeometry>
        </mxCell>
        <mxCell id="IP761gw_RLKj5CbCcdFg-10" value="" style="endArrow=none;html=1;rounded=0;entryX=1;entryY=1;entryDx=0;entryDy=0;" edge="1" parent="1" target="IP761gw_RLKj5CbCcdFg-7">
          <mxGeometry width="50" height="50" relative="1" as="geometry">
            <mxPoint x="576.87" y="320" as="sourcePoint" />
            <mxPoint x="600.12" y="348.25" as="targetPoint" />
          </mxGeometry>
        </mxCell>
        <mxCell id="IP761gw_RLKj5CbCcdFg-11" value="" style="endArrow=none;html=1;rounded=0;entryX=0;entryY=1;entryDx=0;entryDy=0;" edge="1" parent="1" target="IP761gw_RLKj5CbCcdFg-7">
          <mxGeometry width="50" height="50" relative="1" as="geometry">
            <mxPoint x="576.87" y="320" as="sourcePoint" />
            <mxPoint x="600.12" y="290" as="targetPoint" />
          </mxGeometry>
        </mxCell>
        <mxCell id="IP761gw_RLKj5CbCcdFg-12" value="&lt;font style=&quot;vertical-align: inherit;&quot;&gt;&lt;font style=&quot;vertical-align: inherit;&quot;&gt;Idle&lt;/font&gt;&lt;/font&gt;" style="text;html=1;align=center;verticalAlign=middle;whiteSpace=wrap;rounded=0;" vertex="1" parent="1">
          <mxGeometry x="296.87" y="305" width="60" height="30" as="geometry" />
        </mxCell>
        <mxCell id="IP761gw_RLKj5CbCcdFg-91" style="edgeStyle=orthogonalEdgeStyle;rounded=0;orthogonalLoop=1;jettySize=auto;html=1;entryX=0;entryY=0.5;entryDx=0;entryDy=0;exitX=1;exitY=0.5;exitDx=0;exitDy=0;" edge="1" parent="1" source="IP761gw_RLKj5CbCcdFg-14" target="IP761gw_RLKj5CbCcdFg-67">
          <mxGeometry relative="1" as="geometry">
            <Array as="points">
              <mxPoint x="884" y="370" />
              <mxPoint x="663" y="370" />
            </Array>
          </mxGeometry>
        </mxCell>
        <mxCell id="IP761gw_RLKj5CbCcdFg-14" value="" style="shape=partialRectangle;whiteSpace=wrap;html=1;top=0;bottom=0;fillColor=none;rotation=90;" vertex="1" parent="1">
          <mxGeometry x="851.25" y="257.5" width="65" height="122.5" as="geometry" />
        </mxCell>
        <mxCell id="IP761gw_RLKj5CbCcdFg-15" value="" style="endArrow=none;html=1;rounded=0;exitX=1;exitY=0;exitDx=0;exitDy=0;" edge="1" parent="1" source="IP761gw_RLKj5CbCcdFg-14">
          <mxGeometry width="50" height="50" relative="1" as="geometry">
            <mxPoint x="986.25" y="325" as="sourcePoint" />
            <mxPoint x="976.25" y="315" as="targetPoint" />
          </mxGeometry>
        </mxCell>
        <mxCell id="IP761gw_RLKj5CbCcdFg-16" value="" style="endArrow=none;html=1;rounded=0;exitX=0;exitY=0;exitDx=0;exitDy=0;" edge="1" parent="1" source="IP761gw_RLKj5CbCcdFg-14">
          <mxGeometry width="50" height="50" relative="1" as="geometry">
            <mxPoint x="986.25" y="277" as="sourcePoint" />
            <mxPoint x="976.25" y="315" as="targetPoint" />
          </mxGeometry>
        </mxCell>
        <mxCell id="IP761gw_RLKj5CbCcdFg-17" value="" style="endArrow=none;html=1;rounded=0;entryX=1;entryY=1;entryDx=0;entryDy=0;" edge="1" parent="1" target="IP761gw_RLKj5CbCcdFg-14">
          <mxGeometry width="50" height="50" relative="1" as="geometry">
            <mxPoint x="790" y="318.75" as="sourcePoint" />
            <mxPoint x="813.25" y="347" as="targetPoint" />
          </mxGeometry>
        </mxCell>
        <mxCell id="IP761gw_RLKj5CbCcdFg-18" value="" style="endArrow=none;html=1;rounded=0;entryX=0;entryY=1;entryDx=0;entryDy=0;" edge="1" parent="1" target="IP761gw_RLKj5CbCcdFg-14">
          <mxGeometry width="50" height="50" relative="1" as="geometry">
            <mxPoint x="790" y="318.75" as="sourcePoint" />
            <mxPoint x="813.25" y="288.75" as="targetPoint" />
          </mxGeometry>
        </mxCell>
        <mxCell id="IP761gw_RLKj5CbCcdFg-19" value="&lt;font style=&quot;vertical-align: inherit;&quot;&gt;&lt;font style=&quot;vertical-align: inherit;&quot;&gt;Idle&lt;/font&gt;&lt;/font&gt;" style="text;html=1;align=center;verticalAlign=middle;whiteSpace=wrap;rounded=0;" vertex="1" parent="1">
          <mxGeometry x="290" y="413.76" width="60" height="30" as="geometry" />
        </mxCell>
        <mxCell id="IP761gw_RLKj5CbCcdFg-20" value="" style="endArrow=classic;html=1;rounded=0;" edge="1" parent="1">
          <mxGeometry width="50" height="50" relative="1" as="geometry">
            <mxPoint x="546.87" y="319.40999999999997" as="sourcePoint" />
            <mxPoint x="576.87" y="319.82000000000005" as="targetPoint" />
          </mxGeometry>
        </mxCell>
        <mxCell id="IP761gw_RLKj5CbCcdFg-21" value="" style="endArrow=classic;html=1;rounded=0;" edge="1" parent="1">
          <mxGeometry width="50" height="50" relative="1" as="geometry">
            <mxPoint x="760" y="318.15999999999997" as="sourcePoint" />
            <mxPoint x="790" y="318.57000000000005" as="targetPoint" />
          </mxGeometry>
        </mxCell>
        <mxCell id="IP761gw_RLKj5CbCcdFg-22" value="" style="endArrow=classic;html=1;rounded=0;" edge="1" parent="1">
          <mxGeometry width="50" height="50" relative="1" as="geometry">
            <mxPoint x="336.87" y="319.40999999999997" as="sourcePoint" />
            <mxPoint x="366.87" y="319.82000000000005" as="targetPoint" />
          </mxGeometry>
        </mxCell>
        <mxCell id="IP761gw_RLKj5CbCcdFg-23" value="&lt;font style=&quot;vertical-align: inherit;&quot;&gt;&lt;font style=&quot;vertical-align: inherit;&quot;&gt;Recurso&lt;/font&gt;&lt;/font&gt;" style="shape=umlFrame;whiteSpace=wrap;html=1;pointerEvents=0;" vertex="1" parent="1">
          <mxGeometry x="110" y="200" width="1110" height="420" as="geometry" />
        </mxCell>
        <mxCell id="IP761gw_RLKj5CbCcdFg-24" value="&lt;span style=&quot;text-align: left;&quot;&gt;&lt;font style=&quot;vertical-align: inherit;&quot;&gt;&lt;font style=&quot;vertical-align: inherit;&quot;&gt;Crear Recurso&lt;/font&gt;&lt;/font&gt;&lt;/span&gt;" style="text;html=1;align=center;verticalAlign=middle;whiteSpace=wrap;rounded=0;" vertex="1" parent="1">
          <mxGeometry x="429.37" y="305" width="60" height="30" as="geometry" />
        </mxCell>
        <mxCell id="IP761gw_RLKj5CbCcdFg-25" value="&lt;div style=&quot;text-align: left;&quot;&gt;&lt;span style=&quot;background-color: transparent; color: light-dark(rgb(0, 0, 0), rgb(255, 255, 255));&quot;&gt;Editar Recurso&lt;/span&gt;&lt;/div&gt;" style="text;html=1;align=center;verticalAlign=middle;whiteSpace=wrap;rounded=0;" vertex="1" parent="1">
          <mxGeometry x="626.87" y="305" width="88.13" height="30" as="geometry" />
        </mxCell>
        <mxCell id="IP761gw_RLKj5CbCcdFg-26" value="&lt;div style=&quot;text-align: left;&quot;&gt;&lt;span style=&quot;background-color: transparent; color: light-dark(rgb(0, 0, 0), rgb(255, 255, 255));&quot;&gt;Asignar Recurso&lt;/span&gt;&lt;/div&gt;" style="text;html=1;align=center;verticalAlign=middle;whiteSpace=wrap;rounded=0;" vertex="1" parent="1">
          <mxGeometry x="852.5" y="303.75" width="60" height="30" as="geometry" />
        </mxCell>
        <mxCell id="IP761gw_RLKj5CbCcdFg-28" value="{&lt;30min}" style="text;whiteSpace=wrap;" vertex="1" parent="1">
          <mxGeometry x="426.87" y="250" width="80" height="40" as="geometry" />
        </mxCell>
        <mxCell id="IP761gw_RLKj5CbCcdFg-30" value="&lt;font style=&quot;vertical-align: inherit;&quot;&gt;&lt;font style=&quot;vertical-align: inherit;&quot;&gt;Administrador&lt;/font&gt;&lt;/font&gt;" style="text;html=1;align=center;verticalAlign=middle;whiteSpace=wrap;rounded=0;" vertex="1" parent="1">
          <mxGeometry x="210" y="303.75" width="60" height="30" as="geometry" />
        </mxCell>
        <mxCell id="IP761gw_RLKj5CbCcdFg-31" value="" style="shape=partialRectangle;whiteSpace=wrap;html=1;top=0;bottom=0;fillColor=none;rotation=90;" vertex="1" parent="1">
          <mxGeometry x="416.88" y="368.76" width="65" height="120" as="geometry" />
        </mxCell>
        <mxCell id="IP761gw_RLKj5CbCcdFg-32" value="" style="endArrow=none;html=1;rounded=0;exitX=1;exitY=0;exitDx=0;exitDy=0;" edge="1" parent="1" source="IP761gw_RLKj5CbCcdFg-31">
          <mxGeometry width="50" height="50" relative="1" as="geometry">
            <mxPoint x="553.13" y="435.01" as="sourcePoint" />
            <mxPoint x="543.13" y="425.01" as="targetPoint" />
          </mxGeometry>
        </mxCell>
        <mxCell id="IP761gw_RLKj5CbCcdFg-33" value="" style="endArrow=none;html=1;rounded=0;exitX=0;exitY=0;exitDx=0;exitDy=0;" edge="1" parent="1" source="IP761gw_RLKj5CbCcdFg-31">
          <mxGeometry width="50" height="50" relative="1" as="geometry">
            <mxPoint x="553.13" y="387.01" as="sourcePoint" />
            <mxPoint x="543.13" y="425.01" as="targetPoint" />
          </mxGeometry>
        </mxCell>
        <mxCell id="IP761gw_RLKj5CbCcdFg-34" value="" style="endArrow=none;html=1;rounded=0;entryX=1;entryY=1;entryDx=0;entryDy=0;" edge="1" parent="1" target="IP761gw_RLKj5CbCcdFg-31">
          <mxGeometry width="50" height="50" relative="1" as="geometry">
            <mxPoint x="356.88" y="428.76" as="sourcePoint" />
            <mxPoint x="380.13" y="457.01" as="targetPoint" />
          </mxGeometry>
        </mxCell>
        <mxCell id="IP761gw_RLKj5CbCcdFg-35" value="" style="endArrow=none;html=1;rounded=0;entryX=0;entryY=1;entryDx=0;entryDy=0;" edge="1" parent="1" target="IP761gw_RLKj5CbCcdFg-31">
          <mxGeometry width="50" height="50" relative="1" as="geometry">
            <mxPoint x="356.88" y="428.76" as="sourcePoint" />
            <mxPoint x="380.13" y="398.76" as="targetPoint" />
          </mxGeometry>
        </mxCell>
        <mxCell id="IP761gw_RLKj5CbCcdFg-36" value="&lt;div style=&quot;text-align: left;&quot;&gt;&lt;span style=&quot;background-color: transparent; color: light-dark(rgb(0, 0, 0), rgb(255, 255, 255));&quot;&gt;&lt;font style=&quot;vertical-align: inherit;&quot;&gt;&lt;font style=&quot;vertical-align: inherit;&quot;&gt;&lt;font style=&quot;vertical-align: inherit;&quot;&gt;&lt;font style=&quot;vertical-align: inherit;&quot;&gt;Creado&lt;/font&gt;&lt;/font&gt;&lt;/font&gt;&lt;/font&gt;&lt;/span&gt;&lt;/div&gt;" style="text;html=1;align=center;verticalAlign=middle;whiteSpace=wrap;rounded=0;" vertex="1" parent="1">
          <mxGeometry x="396.88" y="413.76" width="85" height="30" as="geometry" />
        </mxCell>
        <mxCell id="IP761gw_RLKj5CbCcdFg-37" value="" style="endArrow=classic;html=1;rounded=0;" edge="1" parent="1">
          <mxGeometry width="50" height="50" relative="1" as="geometry">
            <mxPoint x="330" y="426.28999999999996" as="sourcePoint" />
            <mxPoint x="360" y="426.70000000000005" as="targetPoint" />
          </mxGeometry>
        </mxCell>
        <mxCell id="IP761gw_RLKj5CbCcdFg-38" value="&lt;font style=&quot;vertical-align: inherit;&quot;&gt;&lt;font style=&quot;vertical-align: inherit;&quot;&gt;Estado Recurso&lt;/font&gt;&lt;/font&gt;" style="text;html=1;align=center;verticalAlign=middle;whiteSpace=wrap;rounded=0;" vertex="1" parent="1">
          <mxGeometry x="190" y="411.88" width="100" height="30" as="geometry" />
        </mxCell>
        <mxCell id="IP761gw_RLKj5CbCcdFg-39" value="" style="shape=partialRectangle;whiteSpace=wrap;html=1;top=0;bottom=0;fillColor=none;rotation=90;" vertex="1" parent="1">
          <mxGeometry x="426.87" y="470" width="65" height="120" as="geometry" />
        </mxCell>
        <mxCell id="IP761gw_RLKj5CbCcdFg-40" value="" style="endArrow=none;html=1;rounded=0;exitX=1;exitY=0;exitDx=0;exitDy=0;" edge="1" parent="1" source="IP761gw_RLKj5CbCcdFg-39">
          <mxGeometry width="50" height="50" relative="1" as="geometry">
            <mxPoint x="563.12" y="536.25" as="sourcePoint" />
            <mxPoint x="553.12" y="526.25" as="targetPoint" />
          </mxGeometry>
        </mxCell>
        <mxCell id="IP761gw_RLKj5CbCcdFg-41" value="" style="endArrow=none;html=1;rounded=0;exitX=0;exitY=0;exitDx=0;exitDy=0;" edge="1" parent="1" source="IP761gw_RLKj5CbCcdFg-39">
          <mxGeometry width="50" height="50" relative="1" as="geometry">
            <mxPoint x="563.12" y="488.25" as="sourcePoint" />
            <mxPoint x="553.12" y="526.25" as="targetPoint" />
          </mxGeometry>
        </mxCell>
        <mxCell id="IP761gw_RLKj5CbCcdFg-42" value="" style="endArrow=none;html=1;rounded=0;entryX=1;entryY=1;entryDx=0;entryDy=0;" edge="1" parent="1" target="IP761gw_RLKj5CbCcdFg-39">
          <mxGeometry width="50" height="50" relative="1" as="geometry">
            <mxPoint x="366.87" y="530" as="sourcePoint" />
            <mxPoint x="390.12" y="558.25" as="targetPoint" />
          </mxGeometry>
        </mxCell>
        <mxCell id="IP761gw_RLKj5CbCcdFg-43" value="" style="endArrow=none;html=1;rounded=0;entryX=0;entryY=1;entryDx=0;entryDy=0;" edge="1" parent="1" target="IP761gw_RLKj5CbCcdFg-39">
          <mxGeometry width="50" height="50" relative="1" as="geometry">
            <mxPoint x="366.87" y="530" as="sourcePoint" />
            <mxPoint x="390.12" y="500" as="targetPoint" />
          </mxGeometry>
        </mxCell>
        <mxCell id="IP761gw_RLKj5CbCcdFg-44" value="" style="shape=partialRectangle;whiteSpace=wrap;html=1;top=0;bottom=0;fillColor=none;rotation=90;" vertex="1" parent="1">
          <mxGeometry x="636.87" y="470" width="65" height="120" as="geometry" />
        </mxCell>
        <mxCell id="IP761gw_RLKj5CbCcdFg-45" value="" style="endArrow=none;html=1;rounded=0;exitX=1;exitY=0;exitDx=0;exitDy=0;" edge="1" parent="1" source="IP761gw_RLKj5CbCcdFg-44">
          <mxGeometry width="50" height="50" relative="1" as="geometry">
            <mxPoint x="773.1199999999999" y="536.25" as="sourcePoint" />
            <mxPoint x="763.1199999999999" y="526.25" as="targetPoint" />
          </mxGeometry>
        </mxCell>
        <mxCell id="IP761gw_RLKj5CbCcdFg-46" value="" style="endArrow=none;html=1;rounded=0;exitX=0;exitY=0;exitDx=0;exitDy=0;" edge="1" parent="1" source="IP761gw_RLKj5CbCcdFg-44">
          <mxGeometry width="50" height="50" relative="1" as="geometry">
            <mxPoint x="773.1199999999999" y="488.25" as="sourcePoint" />
            <mxPoint x="763.1199999999999" y="526.25" as="targetPoint" />
          </mxGeometry>
        </mxCell>
        <mxCell id="IP761gw_RLKj5CbCcdFg-47" value="" style="endArrow=none;html=1;rounded=0;entryX=1;entryY=1;entryDx=0;entryDy=0;" edge="1" parent="1" target="IP761gw_RLKj5CbCcdFg-44">
          <mxGeometry width="50" height="50" relative="1" as="geometry">
            <mxPoint x="576.87" y="530" as="sourcePoint" />
            <mxPoint x="600.12" y="558.25" as="targetPoint" />
          </mxGeometry>
        </mxCell>
        <mxCell id="IP761gw_RLKj5CbCcdFg-48" value="" style="endArrow=none;html=1;rounded=0;entryX=0;entryY=1;entryDx=0;entryDy=0;" edge="1" parent="1" target="IP761gw_RLKj5CbCcdFg-44">
          <mxGeometry width="50" height="50" relative="1" as="geometry">
            <mxPoint x="576.87" y="530" as="sourcePoint" />
            <mxPoint x="600.12" y="500" as="targetPoint" />
          </mxGeometry>
        </mxCell>
        <mxCell id="IP761gw_RLKj5CbCcdFg-49" value="&lt;font style=&quot;vertical-align: inherit;&quot;&gt;&lt;font style=&quot;vertical-align: inherit;&quot;&gt;Idle&lt;/font&gt;&lt;/font&gt;" style="text;html=1;align=center;verticalAlign=middle;whiteSpace=wrap;rounded=0;" vertex="1" parent="1">
          <mxGeometry x="296.87" y="515" width="60" height="30" as="geometry" />
        </mxCell>
        <mxCell id="IP761gw_RLKj5CbCcdFg-50" value="" style="endArrow=classic;html=1;rounded=0;" edge="1" parent="1">
          <mxGeometry width="50" height="50" relative="1" as="geometry">
            <mxPoint x="546.87" y="529.41" as="sourcePoint" />
            <mxPoint x="576.87" y="529.82" as="targetPoint" />
          </mxGeometry>
        </mxCell>
        <mxCell id="IP761gw_RLKj5CbCcdFg-51" value="" style="endArrow=classic;html=1;rounded=0;" edge="1" parent="1">
          <mxGeometry width="50" height="50" relative="1" as="geometry">
            <mxPoint x="336.87" y="529.41" as="sourcePoint" />
            <mxPoint x="366.87" y="529.82" as="targetPoint" />
          </mxGeometry>
        </mxCell>
        <mxCell id="IP761gw_RLKj5CbCcdFg-52" value="&lt;span style=&quot;text-align: left;&quot;&gt;&lt;font style=&quot;vertical-align: inherit;&quot;&gt;&lt;font style=&quot;vertical-align: inherit;&quot;&gt;Validar Disponibilidad&lt;/font&gt;&lt;/font&gt;&lt;/span&gt;" style="text;html=1;align=center;verticalAlign=middle;whiteSpace=wrap;rounded=0;" vertex="1" parent="1">
          <mxGeometry x="429.37" y="515" width="60" height="30" as="geometry" />
        </mxCell>
        <mxCell id="IP761gw_RLKj5CbCcdFg-53" value="&lt;div style=&quot;text-align: left;&quot;&gt;Actualizar Estado&lt;/div&gt;" style="text;html=1;align=center;verticalAlign=middle;whiteSpace=wrap;rounded=0;" vertex="1" parent="1">
          <mxGeometry x="641.87" y="515" width="58.13" height="30" as="geometry" />
        </mxCell>
        <mxCell id="IP761gw_RLKj5CbCcdFg-54" value="&lt;font style=&quot;vertical-align: inherit;&quot;&gt;&lt;font style=&quot;vertical-align: inherit;&quot;&gt;Sistema&lt;/font&gt;&lt;/font&gt;" style="text;html=1;align=center;verticalAlign=middle;whiteSpace=wrap;rounded=0;" vertex="1" parent="1">
          <mxGeometry x="210" y="513.75" width="60" height="30" as="geometry" />
        </mxCell>
        <mxCell id="IP761gw_RLKj5CbCcdFg-55" value="{&lt;30min}" style="text;whiteSpace=wrap;" vertex="1" parent="1">
          <mxGeometry x="641.87" y="250" width="80" height="40" as="geometry" />
        </mxCell>
        <mxCell id="IP761gw_RLKj5CbCcdFg-92" style="edgeStyle=orthogonalEdgeStyle;rounded=0;orthogonalLoop=1;jettySize=auto;html=1;entryX=0;entryY=0.5;entryDx=0;entryDy=0;" edge="1" parent="1" source="IP761gw_RLKj5CbCcdFg-56" target="IP761gw_RLKj5CbCcdFg-82">
          <mxGeometry relative="1" as="geometry" />
        </mxCell>
        <mxCell id="IP761gw_RLKj5CbCcdFg-56" value="" style="shape=partialRectangle;whiteSpace=wrap;html=1;top=0;bottom=0;fillColor=none;rotation=90;" vertex="1" parent="1">
          <mxGeometry x="1061.25" y="258.75" width="65" height="122.5" as="geometry" />
        </mxCell>
        <mxCell id="IP761gw_RLKj5CbCcdFg-57" value="" style="endArrow=none;html=1;rounded=0;exitX=1;exitY=0;exitDx=0;exitDy=0;" edge="1" parent="1" source="IP761gw_RLKj5CbCcdFg-56">
          <mxGeometry width="50" height="50" relative="1" as="geometry">
            <mxPoint x="1196.25" y="326.25" as="sourcePoint" />
            <mxPoint x="1186.25" y="316.25" as="targetPoint" />
          </mxGeometry>
        </mxCell>
        <mxCell id="IP761gw_RLKj5CbCcdFg-58" value="" style="endArrow=none;html=1;rounded=0;exitX=0;exitY=0;exitDx=0;exitDy=0;" edge="1" parent="1" source="IP761gw_RLKj5CbCcdFg-56">
          <mxGeometry width="50" height="50" relative="1" as="geometry">
            <mxPoint x="1196.25" y="278.25" as="sourcePoint" />
            <mxPoint x="1186.25" y="316.25" as="targetPoint" />
          </mxGeometry>
        </mxCell>
        <mxCell id="IP761gw_RLKj5CbCcdFg-59" value="" style="endArrow=none;html=1;rounded=0;entryX=1;entryY=1;entryDx=0;entryDy=0;" edge="1" parent="1" target="IP761gw_RLKj5CbCcdFg-56">
          <mxGeometry width="50" height="50" relative="1" as="geometry">
            <mxPoint x="1000" y="320" as="sourcePoint" />
            <mxPoint x="1023.25" y="348.25" as="targetPoint" />
          </mxGeometry>
        </mxCell>
        <mxCell id="IP761gw_RLKj5CbCcdFg-60" value="" style="endArrow=none;html=1;rounded=0;entryX=0;entryY=1;entryDx=0;entryDy=0;" edge="1" parent="1" target="IP761gw_RLKj5CbCcdFg-56">
          <mxGeometry width="50" height="50" relative="1" as="geometry">
            <mxPoint x="1000" y="320" as="sourcePoint" />
            <mxPoint x="1023.25" y="290" as="targetPoint" />
          </mxGeometry>
        </mxCell>
        <mxCell id="IP761gw_RLKj5CbCcdFg-61" value="" style="endArrow=classic;html=1;rounded=0;" edge="1" parent="1">
          <mxGeometry width="50" height="50" relative="1" as="geometry">
            <mxPoint x="970" y="319.40999999999997" as="sourcePoint" />
            <mxPoint x="1000" y="319.82000000000005" as="targetPoint" />
          </mxGeometry>
        </mxCell>
        <mxCell id="IP761gw_RLKj5CbCcdFg-62" value="&lt;div style=&quot;text-align: left;&quot;&gt;&lt;span style=&quot;background-color: transparent; color: light-dark(rgb(0, 0, 0), rgb(255, 255, 255));&quot;&gt;Eliminar Recurso&lt;/span&gt;&lt;/div&gt;" style="text;html=1;align=center;verticalAlign=middle;whiteSpace=wrap;rounded=0;" vertex="1" parent="1">
          <mxGeometry x="1062.5" y="305" width="60" height="30" as="geometry" />
        </mxCell>
        <mxCell id="IP761gw_RLKj5CbCcdFg-63" value="{&gt;1h}" style="text;whiteSpace=wrap;" vertex="1" parent="1">
          <mxGeometry x="860" y="250" width="80" height="40" as="geometry" />
        </mxCell>
        <mxCell id="IP761gw_RLKj5CbCcdFg-64" value="{&lt;5min}" style="text;whiteSpace=wrap;" vertex="1" parent="1">
          <mxGeometry x="1061.25" y="250" width="80" height="40" as="geometry" />
        </mxCell>
        <mxCell id="IP761gw_RLKj5CbCcdFg-65" value="{&lt;30min}" style="text;whiteSpace=wrap;" vertex="1" parent="1">
          <mxGeometry x="396.88" y="368.76" width="80" height="40" as="geometry" />
        </mxCell>
        <mxCell id="IP761gw_RLKj5CbCcdFg-93" style="edgeStyle=orthogonalEdgeStyle;rounded=0;orthogonalLoop=1;jettySize=auto;html=1;entryX=0;entryY=0.5;entryDx=0;entryDy=0;exitX=1;exitY=0.5;exitDx=0;exitDy=0;" edge="1" parent="1" source="IP761gw_RLKj5CbCcdFg-67" target="IP761gw_RLKj5CbCcdFg-39">
          <mxGeometry relative="1" as="geometry">
            <Array as="points">
              <mxPoint x="663" y="480" />
              <mxPoint x="459" y="480" />
            </Array>
          </mxGeometry>
        </mxCell>
        <mxCell id="IP761gw_RLKj5CbCcdFg-67" value="" style="shape=partialRectangle;whiteSpace=wrap;html=1;top=0;bottom=0;fillColor=none;rotation=90;" vertex="1" parent="1">
          <mxGeometry x="630" y="367.51" width="65" height="120" as="geometry" />
        </mxCell>
        <mxCell id="IP761gw_RLKj5CbCcdFg-68" value="" style="endArrow=none;html=1;rounded=0;exitX=1;exitY=0;exitDx=0;exitDy=0;" edge="1" parent="1" source="IP761gw_RLKj5CbCcdFg-67">
          <mxGeometry width="50" height="50" relative="1" as="geometry">
            <mxPoint x="766.25" y="433.76" as="sourcePoint" />
            <mxPoint x="756.25" y="423.76" as="targetPoint" />
          </mxGeometry>
        </mxCell>
        <mxCell id="IP761gw_RLKj5CbCcdFg-69" value="" style="endArrow=none;html=1;rounded=0;exitX=0;exitY=0;exitDx=0;exitDy=0;" edge="1" parent="1" source="IP761gw_RLKj5CbCcdFg-67">
          <mxGeometry width="50" height="50" relative="1" as="geometry">
            <mxPoint x="766.25" y="385.76" as="sourcePoint" />
            <mxPoint x="756.25" y="423.76" as="targetPoint" />
          </mxGeometry>
        </mxCell>
        <mxCell id="IP761gw_RLKj5CbCcdFg-70" value="" style="endArrow=none;html=1;rounded=0;entryX=1;entryY=1;entryDx=0;entryDy=0;" edge="1" parent="1" target="IP761gw_RLKj5CbCcdFg-67">
          <mxGeometry width="50" height="50" relative="1" as="geometry">
            <mxPoint x="570" y="427.51" as="sourcePoint" />
            <mxPoint x="593.25" y="455.76" as="targetPoint" />
          </mxGeometry>
        </mxCell>
        <mxCell id="IP761gw_RLKj5CbCcdFg-71" value="" style="endArrow=none;html=1;rounded=0;entryX=0;entryY=1;entryDx=0;entryDy=0;" edge="1" parent="1" target="IP761gw_RLKj5CbCcdFg-67">
          <mxGeometry width="50" height="50" relative="1" as="geometry">
            <mxPoint x="570" y="427.51" as="sourcePoint" />
            <mxPoint x="593.25" y="397.51" as="targetPoint" />
          </mxGeometry>
        </mxCell>
        <mxCell id="IP761gw_RLKj5CbCcdFg-72" value="" style="shape=partialRectangle;whiteSpace=wrap;html=1;top=0;bottom=0;fillColor=none;rotation=90;" vertex="1" parent="1">
          <mxGeometry x="844.3800000000001" y="365.01" width="65" height="122.5" as="geometry" />
        </mxCell>
        <mxCell id="IP761gw_RLKj5CbCcdFg-73" value="" style="endArrow=none;html=1;rounded=0;exitX=1;exitY=0;exitDx=0;exitDy=0;" edge="1" parent="1" source="IP761gw_RLKj5CbCcdFg-72">
          <mxGeometry width="50" height="50" relative="1" as="geometry">
            <mxPoint x="979.3800000000001" y="432.51" as="sourcePoint" />
            <mxPoint x="969.3800000000001" y="422.51" as="targetPoint" />
          </mxGeometry>
        </mxCell>
        <mxCell id="IP761gw_RLKj5CbCcdFg-74" value="" style="endArrow=none;html=1;rounded=0;exitX=0;exitY=0;exitDx=0;exitDy=0;" edge="1" parent="1" source="IP761gw_RLKj5CbCcdFg-72">
          <mxGeometry width="50" height="50" relative="1" as="geometry">
            <mxPoint x="979.3800000000001" y="384.51" as="sourcePoint" />
            <mxPoint x="969.3800000000001" y="422.51" as="targetPoint" />
          </mxGeometry>
        </mxCell>
        <mxCell id="IP761gw_RLKj5CbCcdFg-75" value="" style="endArrow=none;html=1;rounded=0;entryX=1;entryY=1;entryDx=0;entryDy=0;" edge="1" parent="1" target="IP761gw_RLKj5CbCcdFg-72">
          <mxGeometry width="50" height="50" relative="1" as="geometry">
            <mxPoint x="783.1300000000001" y="426.26" as="sourcePoint" />
            <mxPoint x="806.3800000000001" y="454.51" as="targetPoint" />
          </mxGeometry>
        </mxCell>
        <mxCell id="IP761gw_RLKj5CbCcdFg-76" value="" style="endArrow=none;html=1;rounded=0;entryX=0;entryY=1;entryDx=0;entryDy=0;" edge="1" parent="1" target="IP761gw_RLKj5CbCcdFg-72">
          <mxGeometry width="50" height="50" relative="1" as="geometry">
            <mxPoint x="783.1300000000001" y="426.26" as="sourcePoint" />
            <mxPoint x="806.3800000000001" y="396.26" as="targetPoint" />
          </mxGeometry>
        </mxCell>
        <mxCell id="IP761gw_RLKj5CbCcdFg-77" value="" style="endArrow=classic;html=1;rounded=0;" edge="1" parent="1">
          <mxGeometry width="50" height="50" relative="1" as="geometry">
            <mxPoint x="540" y="426.91999999999996" as="sourcePoint" />
            <mxPoint x="570" y="427.33000000000004" as="targetPoint" />
          </mxGeometry>
        </mxCell>
        <mxCell id="IP761gw_RLKj5CbCcdFg-78" value="" style="endArrow=classic;html=1;rounded=0;" edge="1" parent="1">
          <mxGeometry width="50" height="50" relative="1" as="geometry">
            <mxPoint x="753.1300000000001" y="425.66999999999996" as="sourcePoint" />
            <mxPoint x="783.1300000000001" y="426.08000000000004" as="targetPoint" />
          </mxGeometry>
        </mxCell>
        <mxCell id="IP761gw_RLKj5CbCcdFg-79" value="&lt;div style=&quot;text-align: left;&quot;&gt;&lt;span style=&quot;background-color: transparent; color: light-dark(rgb(0, 0, 0), rgb(255, 255, 255));&quot;&gt;Disponible&lt;/span&gt;&lt;/div&gt;" style="text;html=1;align=center;verticalAlign=middle;whiteSpace=wrap;rounded=0;" vertex="1" parent="1">
          <mxGeometry x="620" y="412.51" width="88.13" height="30" as="geometry" />
        </mxCell>
        <mxCell id="IP761gw_RLKj5CbCcdFg-80" value="&lt;div style=&quot;text-align: left;&quot;&gt;Asignado&lt;/div&gt;" style="text;html=1;align=center;verticalAlign=middle;whiteSpace=wrap;rounded=0;" vertex="1" parent="1">
          <mxGeometry x="845.6300000000001" y="411.26" width="60" height="30" as="geometry" />
        </mxCell>
        <mxCell id="IP761gw_RLKj5CbCcdFg-81" value="{&lt;5min}" style="text;whiteSpace=wrap;" vertex="1" parent="1">
          <mxGeometry x="636.87" y="365.01" width="80" height="40" as="geometry" />
        </mxCell>
        <mxCell id="IP761gw_RLKj5CbCcdFg-82" value="" style="shape=partialRectangle;whiteSpace=wrap;html=1;top=0;bottom=0;fillColor=none;rotation=90;" vertex="1" parent="1">
          <mxGeometry x="1054.38" y="366.26" width="65" height="122.5" as="geometry" />
        </mxCell>
        <mxCell id="IP761gw_RLKj5CbCcdFg-83" value="" style="endArrow=none;html=1;rounded=0;exitX=1;exitY=0;exitDx=0;exitDy=0;" edge="1" parent="1" source="IP761gw_RLKj5CbCcdFg-82">
          <mxGeometry width="50" height="50" relative="1" as="geometry">
            <mxPoint x="1189.38" y="433.76" as="sourcePoint" />
            <mxPoint x="1179.38" y="423.76" as="targetPoint" />
          </mxGeometry>
        </mxCell>
        <mxCell id="IP761gw_RLKj5CbCcdFg-84" value="" style="endArrow=none;html=1;rounded=0;exitX=0;exitY=0;exitDx=0;exitDy=0;" edge="1" parent="1" source="IP761gw_RLKj5CbCcdFg-82">
          <mxGeometry width="50" height="50" relative="1" as="geometry">
            <mxPoint x="1189.38" y="385.76" as="sourcePoint" />
            <mxPoint x="1179.38" y="423.76" as="targetPoint" />
          </mxGeometry>
        </mxCell>
        <mxCell id="IP761gw_RLKj5CbCcdFg-85" value="" style="endArrow=none;html=1;rounded=0;entryX=1;entryY=1;entryDx=0;entryDy=0;" edge="1" parent="1" target="IP761gw_RLKj5CbCcdFg-82">
          <mxGeometry width="50" height="50" relative="1" as="geometry">
            <mxPoint x="993.1300000000001" y="427.51" as="sourcePoint" />
            <mxPoint x="1016.3800000000001" y="455.76" as="targetPoint" />
          </mxGeometry>
        </mxCell>
        <mxCell id="IP761gw_RLKj5CbCcdFg-86" value="" style="endArrow=none;html=1;rounded=0;entryX=0;entryY=1;entryDx=0;entryDy=0;" edge="1" parent="1" target="IP761gw_RLKj5CbCcdFg-82">
          <mxGeometry width="50" height="50" relative="1" as="geometry">
            <mxPoint x="993.1300000000001" y="427.51" as="sourcePoint" />
            <mxPoint x="1016.3800000000001" y="397.51" as="targetPoint" />
          </mxGeometry>
        </mxCell>
        <mxCell id="IP761gw_RLKj5CbCcdFg-87" value="" style="endArrow=classic;html=1;rounded=0;" edge="1" parent="1">
          <mxGeometry width="50" height="50" relative="1" as="geometry">
            <mxPoint x="963.1300000000001" y="426.91999999999996" as="sourcePoint" />
            <mxPoint x="993.1300000000001" y="427.33000000000004" as="targetPoint" />
          </mxGeometry>
        </mxCell>
        <mxCell id="IP761gw_RLKj5CbCcdFg-88" value="&lt;div style=&quot;text-align: left;&quot;&gt;&lt;span style=&quot;background-color: transparent; color: light-dark(rgb(0, 0, 0), rgb(255, 255, 255));&quot;&gt;Eliminado&lt;/span&gt;&lt;/div&gt;" style="text;html=1;align=center;verticalAlign=middle;whiteSpace=wrap;rounded=0;" vertex="1" parent="1">
          <mxGeometry x="1055.63" y="412.51" width="60" height="30" as="geometry" />
        </mxCell>
        <mxCell id="IP761gw_RLKj5CbCcdFg-89" value="{&gt;1h}" style="text;whiteSpace=wrap;" vertex="1" parent="1">
          <mxGeometry x="852.5000000000001" y="366.26" width="80" height="40" as="geometry" />
        </mxCell>
        <mxCell id="IP761gw_RLKj5CbCcdFg-90" value="{&lt;5min}" style="text;whiteSpace=wrap;" vertex="1" parent="1">
          <mxGeometry x="1042.5" y="357.51" width="80" height="40" as="geometry" />
        </mxCell>
        <mxCell id="IP761gw_RLKj5CbCcdFg-107" style="edgeStyle=orthogonalEdgeStyle;rounded=0;orthogonalLoop=1;jettySize=auto;html=1;entryX=0;entryY=0.5;entryDx=0;entryDy=0;" edge="1" parent="1" source="IP761gw_RLKj5CbCcdFg-94" target="IP761gw_RLKj5CbCcdFg-30">
          <mxGeometry relative="1" as="geometry">
            <Array as="points">
              <mxPoint x="883" y="600" />
              <mxPoint x="190" y="600" />
              <mxPoint x="190" y="319" />
            </Array>
          </mxGeometry>
        </mxCell>
        <mxCell id="IP761gw_RLKj5CbCcdFg-94" value="" style="shape=partialRectangle;whiteSpace=wrap;html=1;top=0;bottom=0;fillColor=none;rotation=90;" vertex="1" parent="1">
          <mxGeometry x="850.62" y="465" width="65" height="120" as="geometry" />
        </mxCell>
        <mxCell id="IP761gw_RLKj5CbCcdFg-95" value="" style="endArrow=none;html=1;rounded=0;exitX=1;exitY=0;exitDx=0;exitDy=0;" edge="1" parent="1" source="IP761gw_RLKj5CbCcdFg-94">
          <mxGeometry width="50" height="50" relative="1" as="geometry">
            <mxPoint x="986.8699999999999" y="531.25" as="sourcePoint" />
            <mxPoint x="976.8699999999999" y="521.25" as="targetPoint" />
          </mxGeometry>
        </mxCell>
        <mxCell id="IP761gw_RLKj5CbCcdFg-96" value="" style="endArrow=none;html=1;rounded=0;exitX=0;exitY=0;exitDx=0;exitDy=0;" edge="1" parent="1" source="IP761gw_RLKj5CbCcdFg-94">
          <mxGeometry width="50" height="50" relative="1" as="geometry">
            <mxPoint x="986.8699999999999" y="483.25" as="sourcePoint" />
            <mxPoint x="976.8699999999999" y="521.25" as="targetPoint" />
          </mxGeometry>
        </mxCell>
        <mxCell id="IP761gw_RLKj5CbCcdFg-97" value="" style="endArrow=none;html=1;rounded=0;entryX=1;entryY=1;entryDx=0;entryDy=0;" edge="1" parent="1" target="IP761gw_RLKj5CbCcdFg-94">
          <mxGeometry width="50" height="50" relative="1" as="geometry">
            <mxPoint x="790.62" y="525" as="sourcePoint" />
            <mxPoint x="813.87" y="553.25" as="targetPoint" />
          </mxGeometry>
        </mxCell>
        <mxCell id="IP761gw_RLKj5CbCcdFg-98" value="" style="endArrow=none;html=1;rounded=0;entryX=0;entryY=1;entryDx=0;entryDy=0;" edge="1" parent="1" target="IP761gw_RLKj5CbCcdFg-94">
          <mxGeometry width="50" height="50" relative="1" as="geometry">
            <mxPoint x="790.62" y="525" as="sourcePoint" />
            <mxPoint x="813.87" y="495" as="targetPoint" />
          </mxGeometry>
        </mxCell>
        <mxCell id="IP761gw_RLKj5CbCcdFg-99" value="&lt;div style=&quot;text-align: left;&quot;&gt;Notificar Cambios&lt;/div&gt;" style="text;html=1;align=center;verticalAlign=middle;whiteSpace=wrap;rounded=0;" vertex="1" parent="1">
          <mxGeometry x="855.62" y="510" width="58.13" height="30" as="geometry" />
        </mxCell>
        <mxCell id="IP761gw_RLKj5CbCcdFg-106" value="" style="endArrow=classic;html=1;rounded=0;" edge="1" parent="1">
          <mxGeometry width="50" height="50" relative="1" as="geometry">
            <mxPoint x="760" y="524.62" as="sourcePoint" />
            <mxPoint x="790" y="525.0300000000001" as="targetPoint" />
          </mxGeometry>
        </mxCell>
        <mxCell id="IP761gw_RLKj5CbCcdFg-108" value="{&lt;2min}" style="text;whiteSpace=wrap;" vertex="1" parent="1">
          <mxGeometry x="401.88" y="473.75" width="80" height="40" as="geometry" />
        </mxCell>
      </root>
    </mxGraphModel>
  </diagram>
</mxfile>
